# xmcd
#
# Track frame offsets:
#	150
#	75037
#	89905
#	121220
#	137796
#
# Disc length: 2116 seconds
#
# Revision: 1
# Processed by: cddbd v1.5.2PL0 Copyright (c) Steve Scherf et al.
# Submitted via: audiograbber 1.83.01
#
DISCID=37084205
DTITLE=Grateful Dead - 72-03-05 Winterland Arena, San Francisco CA
DYEAR=1900
DGENRE=
TTITLE0=Good Lovin'
TTITLE1=Not Fade Away
TTITLE2=Going Down The Road Feeling Bad
TTITLE3=Not Fade Away
TTITLE4=One More Saturday Night
EXTD=
EXTT0=
EXTT1=
EXTT2=
EXTT3=
EXTT4=
PLAYORDER=
